<svg width="23" height="28" viewBox="0 0 23 28" fill="none" xmlns="http://www.w3.org/2000/svg">
<path d="M21.4444 24H4.55556C4.55556 24 3.5 24 3.5 22.9714C3.5 21.9429 5.08333 19.8857 5.08333 18.8571V14.2286C5.08333 12.1714 6.13889 6 13 6C19.8611 6 20.9167 12.6857 20.9167 14.2286V18.8571C20.9167 19.8857 22.5 21.9429 22.5 22.9714C22.5 24 21.4444 24 21.4444 24Z" fill="#FFC02B"/>
<path d="M12.5 27C14.7091 27 16.5 25.6569 16.5 24H8.5C8.5 25.6569 10.2909 27 12.5 27Z" fill="#FFC02B"/>
<path d="M11 4V0" stroke="#101010" stroke-width="1.4"/>
<path d="M15.5 23C15.5 25.2091 13.4853 27 11 27C8.51472 27 6.5 25.2091 6.5 23" stroke="#101010" stroke-width="1.4"/>
<path d="M19.8889 23H2.11111C2.11111 23 1 23 1 21.9143C1 20.8286 2.66667 18.6571 2.66667 17.5714V12.6857C2.66667 10.5143 3.77778 4 11 4C18.2222 4 19.3333 11.0571 19.3333 12.6857V17.5714C19.3333 18.6571 21 20.8286 21 21.9143C21 23 19.8889 23 19.8889 23Z" stroke="#101010" stroke-width="1.4"/>
</svg>
